<svg width="16" height="16" viewBox="0 0 16 16" fill="none" xmlns="http://www.w3.org/2000/svg">
<path fill-rule="evenodd" clip-rule="evenodd" d="M11.3128 5.31338L7.3328 9.96004L5.35413 7.98004C5.15947 7.78404 4.8408 7.78404 4.64613 7.98004C4.45013 8.17471 4.45013 8.49204 4.64613 8.68804L6.97947 11.0214C7.17547 11.2174 7.4928 11.2174 7.68747 11.0214L12.0208 6.02138C12.2155 5.82404 12.2155 5.50804 12.0208 5.31338C11.8248 5.11738 11.5075 5.11738 11.3128 5.31338ZM8 0.000976562C3.58267 0.000976562 0 3.58231 0 8.00098C0 12.4183 3.58267 16.001 8 16.001C12.4173 16.001 16 12.4183 16 8.00098C16 3.58231 12.4173 0.000976562 8 0.000976562Z" fill="#018CCD"/>
</svg>
