<svg width="16" height="16" viewBox="0 0 16 16" fill="none" xmlns="http://www.w3.org/2000/svg">
<path fill-rule="evenodd" clip-rule="evenodd" d="M7.6472 10.8547H7.64587L5.00053 8.20667C4.80453 8.012 4.80453 7.69467 5.00053 7.5C5.1952 7.304 5.5112 7.304 5.7072 7.5L7.50053 9.29333V1.5C7.50053 1.224 7.72453 1 8.00053 1C8.27653 1 8.50053 1.224 8.50053 1.5V9.29333L10.2925 7.5C10.4845 7.30133 10.8005 7.296 11.0005 7.488C11.1992 7.68 11.2045 7.996 11.0112 8.19467C11.0092 8.19667 11.0075 8.19867 11.0059 8.20067C11.0042 8.20267 11.0025 8.20467 11.0005 8.20667L8.35387 10.8547C8.1592 11.0493 7.84187 11.0493 7.6472 10.8547ZM15 8.49987C15 8.22387 15.224 7.99987 15.5 7.99987C15.776 7.99987 16 8.22387 16 8.49987V11.9999C16 13.1052 15.104 13.9999 14 13.9999H2C0.894667 13.9999 0 13.1052 0 11.9999V8.49987C0 8.22387 0.224 7.99987 0.5 7.99987C0.776 7.99987 1 8.22387 1 8.49987V11.9999C1 12.5532 1.448 12.9999 2 12.9999H14C14.552 12.9999 15 12.5532 15 11.9999V8.49987Z" fill="#424893"/>
</svg>
