<svg width="16" height="16" viewBox="0 0 16 16" fill="none" xmlns="http://www.w3.org/2000/svg">
<path fill-rule="evenodd" clip-rule="evenodd" d="M11.4298 11.232C11.2978 11.4747 10.9952 11.5653 10.7525 11.4333L7.25249 9.43333C7.09649 9.34533 7.00049 9.17867 7.00049 9V3.5C7.00049 3.224 7.22449 3 7.50049 3C7.77649 3 8.00049 3.224 8.00049 3.5V8.70933L11.2472 10.5653C11.4765 10.704 11.5565 10.996 11.4298 11.232ZM8.00049 0C3.58182 0 0.000488281 3.58133 0.000488281 8C0.000488281 12.4187 3.58182 16 8.00049 16C12.4178 16 16.0005 12.4187 16.0005 8C16.0005 3.58133 12.4178 0 8.00049 0Z" fill="#EF6F00"/>
</svg>
