<svg width="16" height="16" viewBox="0 0 16 16" fill="none" xmlns="http://www.w3.org/2000/svg">
<path fill-rule="evenodd" clip-rule="evenodd" d="M11.3128 5.31289L7.3328 9.95955L5.35413 7.97956C5.15947 7.78356 4.8408 7.78356 4.64613 7.97956C4.45013 8.17422 4.45013 8.49156 4.64613 8.68756L6.97947 11.0209C7.17547 11.2169 7.4928 11.2169 7.68747 11.0209L12.0208 6.02089C12.2155 5.82355 12.2155 5.50756 12.0208 5.31289C11.8248 5.11689 11.5075 5.11689 11.3128 5.31289ZM8 0.000488281C3.58267 0.000488281 0 3.58182 0 8.00049C0 12.4178 3.58267 16.0005 8 16.0005C12.4173 16.0005 16 12.4178 16 8.00049C16 3.58182 12.4173 0.000488281 8 0.000488281Z" fill="#628E37"/>
</svg>
