<svg width="16" height="16" viewBox="0 0 16 16" fill="none" xmlns="http://www.w3.org/2000/svg">
<path fill-rule="evenodd" clip-rule="evenodd" d="M16 8C16 12.4183 12.4183 16 8 16C3.58172 16 0 12.4183 0 8C0 3.58172 3.58172 0 8 0C12.4183 0 16 3.58172 16 8ZM11.354 5.354C11.5495 5.15849 11.5495 4.84151 11.354 4.646C11.1585 4.45049 10.8415 4.45049 10.646 4.646L4.646 10.646C4.51953 10.7725 4.47014 10.9568 4.51643 11.1296C4.56272 11.3023 4.69766 11.4373 4.87043 11.4836C5.04319 11.5299 5.22753 11.4805 5.354 11.354L11.354 5.354Z" fill="#E60D2E"/>
</svg>
