<svg width="44" height="44" viewBox="0 0 44 44" fill="none" xmlns="http://www.w3.org/2000/svg">
<path fill-rule="evenodd" clip-rule="evenodd" d="M36.318 13.3081C36.5072 13.9882 36.6475 14.6442 36.7559 15.2592C38.1947 15.6655 39.1287 16.9774 38.9856 18.3909C38.8424 19.8044 37.6621 20.9248 36.1679 21.0654C35.5888 23.9607 34.1206 26.6304 31.9467 28.7413C30.9728 29.6869 29.8647 30.5 28.6543 31.1573C31.9645 33.2143 34.097 36.5911 34.4424 40.3225C34.4815 40.752 34.3286 41.1773 34.0207 41.4952C33.7091 41.8165 33.2694 41.9996 32.8084 42H14.1382C13.796 42 13.5185 41.7376 13.5185 41.4139C13.5185 41.0903 13.796 40.8279 14.1382 40.8279H32.8084C32.9218 40.8283 33.0301 40.7832 33.1064 40.7039C33.1801 40.6287 33.2167 40.5276 33.2073 40.4256C32.873 36.8113 30.6892 33.5806 27.3607 31.7764C26.9109 31.9664 26.4511 32.1344 25.9831 32.2797L23.0484 37.6513C22.7492 38.1989 22.1518 38.5428 21.5001 38.5428C20.8483 38.5428 20.251 38.1989 19.9517 37.6513L17.0171 32.2802C16.549 32.1349 16.0892 31.9669 15.6394 31.7769C12.3113 33.5811 10.1277 36.8116 9.79343 40.4256C9.78405 40.5277 9.82088 40.6288 9.89477 40.7039C9.97107 40.7833 10.0794 40.8283 10.1928 40.8279H11.196C11.5383 40.8279 11.8157 41.0903 11.8157 41.4139C11.8157 41.7376 11.5383 42 11.196 42H10.1928C9.73211 41.9995 9.29264 41.8166 8.98104 41.4957C8.67328 41.1778 8.52037 40.7525 8.55941 40.3231C8.90472 36.5917 11.037 33.215 14.3469 31.1578C13.1365 30.5005 12.0285 29.6874 11.0545 28.7418C8.88057 26.6308 7.41238 23.9608 6.8333 21.0654C5.33893 20.9253 4.15808 19.8052 4.01452 18.3915C3.87096 16.9779 4.8048 15.6657 6.24366 15.2592C6.35694 14.6028 6.50307 13.9519 6.68155 13.3086C6.89454 10.1254 8.02071 7.5423 10.0308 5.63063C12.5639 3.22132 16.4231 2 21.5006 2C24.865 2 27.7178 2.54172 29.9816 3.60929C30.2878 3.75421 30.4118 4.10643 30.2585 4.39599C30.1053 4.68555 29.7328 4.80281 29.4266 4.65789C27.3385 3.6713 24.6721 3.1716 21.5012 3.1716C16.0459 3.1716 12.6983 4.62508 10.6882 6.67001C10.9487 6.75803 11.2189 6.81837 11.4935 6.8499C11.8306 6.86321 12.0945 7.12924 12.087 7.44826C12.0794 7.76728 11.8033 8.02191 11.4659 8.02099H11.4372C10.894 7.96899 10.3618 7.84226 9.85738 7.6448C9.23739 8.49945 8.76471 9.44172 8.45698 10.4365C9.51162 10.6883 10.5866 10.8568 11.6707 10.9403C12.0128 10.9448 12.2863 11.2107 12.2815 11.5343C12.2767 11.8578 11.9955 12.1164 11.6534 12.1119H11.6355C10.4631 12.028 9.3006 11.8481 8.16107 11.5742C8.06399 12.0462 7.99308 12.5226 7.94863 13.0016C9.46032 13.4526 11.0132 13.7692 12.5872 13.9472C12.6262 13.9486 12.6651 13.9535 12.7031 13.962C15.6225 14.3003 18.5605 14.4743 21.5017 14.4832C24.4423 14.4745 27.3798 14.3006 30.2986 13.9625C30.3369 13.9541 30.3759 13.9491 30.4151 13.9477C31.9882 13.7696 33.5402 13.4531 35.051 13.0021C34.9277 11.2582 34.3722 9.56625 33.4295 8.06301C32.8894 8.19532 32.3378 8.28109 31.7814 8.31927C31.4391 8.31927 31.1617 8.05688 31.1617 7.73321C31.1617 7.40954 31.4391 7.14715 31.7814 7.14715C32.0698 7.12512 32.3563 7.0854 32.6393 7.02825C32.3551 6.70592 32.0473 6.40295 31.718 6.12162C31.4636 5.90494 31.4431 5.53425 31.6722 5.29366C31.9013 5.05306 32.2933 5.03367 32.5477 5.25035C33.1594 5.77247 33.7038 6.36097 34.1698 7.00365C34.2042 7.04048 34.2335 7.0813 34.257 7.12512C35.5091 8.9779 36.2202 11.1112 36.318 13.3081ZM6.05182 16.6394C5.55042 16.9776 5.25173 17.5233 5.2492 18.1057C5.25104 18.9131 5.81919 19.6213 6.64092 19.8405C6.60624 19.5463 6.5804 19.2503 6.56342 18.9523C6.52183 18.9296 6.48166 18.9046 6.44311 18.8775C6.12135 18.6483 5.93905 18.2844 5.95536 17.9037C5.9748 17.4815 6.00697 17.0599 6.05182 16.6394ZM7.73347 14.1686C8.98783 14.5364 10.2708 14.8106 11.5705 14.9886C10.4958 16.401 8.95735 17.4376 7.19477 17.9371C7.25352 16.6681 7.43364 15.4068 7.73293 14.1686H7.73347ZM21.5001 37.3745C21.6886 37.3745 21.8614 37.2748 21.9477 37.1163L24.367 32.6882C22.4749 33.0506 20.5252 33.0506 18.6332 32.6882L21.0524 37.1163C21.1387 37.2748 21.3115 37.3745 21.5001 37.3745ZM35.0358 20.3807V20.3843C34.5702 23.2265 33.1807 25.8612 31.0601 27.9228C29.9347 29.0179 28.6138 29.9165 27.158 30.5771C27.1358 30.5857 27.1141 30.5954 27.093 30.6063C26.5509 30.848 25.9919 31.0544 25.42 31.2239C25.3931 31.2298 25.3667 31.2373 25.3409 31.2465C22.8378 31.9695 20.1635 31.9695 17.6604 31.2465C17.6366 31.2383 17.6124 31.2314 17.5877 31.226C17.0143 31.0563 16.4539 30.8496 15.9104 30.6074C15.8892 30.5964 15.8673 30.5867 15.8448 30.5782C14.3891 29.9176 13.0682 29.0193 11.9428 27.9244C9.82107 25.8625 8.43093 23.227 7.96544 20.3838V20.3797C7.88812 19.9177 7.83392 19.4502 7.80285 18.9769C9.9369 18.333 11.7515 16.9789 12.9102 15.1659C13.4147 15.2259 13.9399 15.2817 14.4862 15.332C17.6474 15.6231 20.4476 15.6548 21.5017 15.6548C22.5558 15.6548 25.356 15.6236 28.5172 15.332C29.0646 15.2807 29.5887 15.2259 30.0932 15.1659C31.2512 16.9786 33.0648 18.3327 35.1978 18.9775C35.1675 19.4503 35.1135 19.9181 35.0358 20.3807ZM35.2677 14.1681C34.0134 14.5359 32.7305 14.81 31.4308 14.9881C32.5057 16.4 34.0441 17.4363 35.8064 17.9355C35.7475 16.6669 35.5672 15.4059 35.2677 14.1681ZM36.3625 19.841C36.3986 19.5469 36.4244 19.2508 36.44 18.9529C36.4816 18.9302 36.5218 18.9052 36.5603 18.878C36.882 18.6488 37.0643 18.2849 37.048 17.9043C37.0318 17.5455 37.0025 17.1155 36.9516 16.6399C37.5502 17.0412 37.8517 17.7321 37.7263 18.4159C37.601 19.0996 37.0712 19.6543 36.3646 19.8416L36.3625 19.841ZM22.5 13.2097H20.5013C19.978 13.2097 19.5535 12.8091 19.5523 12.3143V10.7865H17.9368C17.4135 10.7859 16.9895 10.3849 16.9889 9.89012V7.99998C16.9895 7.50515 17.4135 7.10416 17.9368 7.1036H19.5523V5.5758C19.5529 5.08097 19.9769 4.67998 20.5002 4.67942H22.4989C23.0221 4.67998 23.4462 5.08097 23.4468 5.5758V7.10308H25.0623C25.5856 7.10365 26.0096 7.50464 26.0102 7.99947V9.8891C26.0096 10.3839 25.5856 10.7849 25.0623 10.7855H23.4478V12.3133C23.4472 12.8081 23.0232 13.2091 22.5 13.2097ZM18.23 8.2752V9.61388H19.9138C20.3997 9.61416 20.7936 9.98664 20.7939 10.4462V12.0381H22.2095V10.4462C22.2098 9.98664 22.6037 9.61416 23.0896 9.61388H24.7729V8.2752H23.0896C22.6037 8.27491 22.2098 7.90244 22.2095 7.44288V5.85153H20.7939V7.44288C20.7936 7.90244 20.3997 8.27491 19.9138 8.2752H18.23ZM30.6406 12.1113C30.2991 12.0924 30.0385 11.8152 30.0585 11.4922C30.0683 11.3368 30.143 11.1914 30.2662 11.088C30.3894 10.9847 30.551 10.9319 30.7154 10.9413C31.4456 10.9332 32.1726 10.8486 32.8832 10.6891C33.0875 10.6086 33.3218 10.6374 33.4976 10.7645C33.6735 10.8917 33.7643 11.0979 33.7358 11.3055C33.7073 11.5131 33.5639 11.6906 33.3595 11.771C32.5248 11.9894 31.6638 12.105 30.7977 12.1149C30.7666 12.1149 30.7371 12.1139 30.7093 12.113C30.6849 12.1121 30.6619 12.1113 30.6406 12.1113ZM29.8894 37.6006C29.8894 37.9241 29.6121 38.1864 29.27 38.1864H26.6052C26.2631 38.1864 25.9858 37.9241 25.9858 37.6006C25.9858 37.2771 26.2631 37.0148 26.6052 37.0148H29.27C29.6121 37.0148 29.8894 37.2771 29.8894 37.6006Z" fill="#ef6f00"/>
</svg>
