<svg width="44" height="44" viewBox="0 0 44 44" fill="none" xmlns="http://www.w3.org/2000/svg">
<path fill-rule="evenodd" clip-rule="evenodd" d="M20.2153 12.3499V11.0665L18.9404 11.0682C18.4292 11.0675 18.0149 10.6503 18.0142 10.1355V8.40706C18.0149 7.89223 18.4292 7.47505 18.9404 7.47437H20.2153V6.18761C20.216 5.67278 20.6302 5.2556 21.1414 5.25492H22.8577C23.369 5.2556 23.7832 5.67278 23.7839 6.18761V7.47229H25.0588C25.57 7.47298 25.9843 7.89016 25.9849 8.40498V10.1338C25.9843 10.6486 25.57 11.0658 25.0588 11.0665H23.7839V12.3499C23.7832 12.8648 23.369 13.2819 22.8577 13.2826H21.1414C20.6302 13.2819 20.216 12.8648 20.2153 12.3499ZM20.6361 8.77067H19.3031V9.76853H20.6378C21.1169 9.76922 21.5051 10.1602 21.5058 10.6427V11.9834H22.495V10.641C22.4957 10.1585 22.8839 9.76756 23.3631 9.76687H24.6944V8.77067H23.3614C22.8823 8.76998 22.4941 8.37901 22.4934 7.89651V6.55413H21.5041V7.89651C21.5035 8.37901 21.1152 8.76998 20.6361 8.77067Z" fill="#ef6f00"/>
<path fill-rule="evenodd" clip-rule="evenodd" d="M22 15.5357C24.5173 15.5357 26.7868 14.0086 27.7501 11.6665C28.7135 9.32441 28.181 6.62853 26.401 4.83597C24.6209 3.0434 21.9439 2.50716 19.6182 3.47729C17.2925 4.44742 15.7761 6.73287 15.7761 9.26794C15.7791 12.7283 18.5639 15.5327 22 15.5357ZM22 4.30147C24.7246 4.30147 26.9334 6.52578 26.9334 9.2696C26.9334 12.0134 24.7246 14.2377 22 14.2377C19.2754 14.2377 17.0666 12.0134 17.0666 9.2696C17.0694 6.52685 19.2764 4.30444 22 4.30147Z" fill="#ef6f00"/>
<path d="M37.0255 38.7654C37.3713 38.7654 37.6516 38.4831 37.6516 38.1349C37.6516 37.7867 37.3713 37.5044 37.0255 37.5044C36.6798 37.5044 36.3994 37.7867 36.3994 38.1349C36.3994 38.4831 36.6798 38.7654 37.0255 38.7654Z" fill="#ef6f00"/>
<path d="M7.60056 38.1349C7.60056 38.4831 7.32025 38.7654 6.97446 38.7654C6.62868 38.7654 6.34837 38.4831 6.34837 38.1349C6.34837 37.7867 6.62868 37.5044 6.97446 37.5044C7.32025 37.5044 7.60056 37.7867 7.60056 38.1349Z" fill="#ef6f00"/>
<path fill-rule="evenodd" clip-rule="evenodd" d="M44 20.7911C44 21.1496 43.7114 21.4403 43.3554 21.4403C43.1842 21.4403 43.02 21.3717 42.8991 21.2497C42.7782 21.1277 42.7104 20.9622 42.7107 20.7898V20.3747C42.7105 20.2334 42.5968 20.1189 42.4564 20.1186H40.2207C40.0804 20.1189 39.9667 20.2334 39.9664 20.3747V26.3262C39.9651 27.0808 39.358 27.6921 38.6087 27.6935H5.39129C4.64201 27.6921 4.03493 27.0808 4.03357 26.3262V15.488C4.03335 15.3466 3.91962 15.2321 3.77926 15.2319H1.54402C1.40366 15.2321 1.28993 15.3466 1.2897 15.488V27.7553C1.29129 28.8092 2.13924 29.6631 3.18572 29.6647H9.52131C9.75543 29.6588 9.97435 29.7811 10.0932 29.9844C10.212 30.1876 10.212 30.4398 10.0932 30.643C9.97435 30.8463 9.75543 30.9686 9.52131 30.9627H8.73405V33.2083H35.2659V30.961H12.564C12.3299 30.967 12.111 30.8446 11.9922 30.6414C11.8734 30.4381 11.8734 30.186 11.9922 29.9827C12.111 29.7795 12.3299 29.6571 12.564 29.6631H40.8147C41.8612 29.6615 42.7091 28.8075 42.7107 27.7537V23.761C42.7048 23.5252 42.8263 23.3048 43.0281 23.1851C43.23 23.0655 43.4803 23.0655 43.6822 23.1851C43.884 23.3048 44.0055 23.5252 43.9996 23.761V27.7545C43.9975 29.5255 42.5724 30.9606 40.8139 30.9627H38.7851V35.9412C39.7101 36.6924 40.0641 37.9494 39.6685 39.0778C39.2729 40.2062 38.2138 40.9608 37.0255 40.9608C35.8373 40.9608 34.7781 40.2062 34.3826 39.0778C33.987 37.9494 34.341 36.6924 35.2659 35.9412V34.5083H8.73364V35.9412C9.65857 36.6924 10.0126 37.9494 9.61701 39.0778C9.22146 40.2062 8.16233 40.9608 6.97405 40.9608C5.78578 40.9608 4.72664 40.2062 4.33109 39.0778C3.93553 37.9494 4.28953 36.6924 5.21446 35.9412V30.9627H3.18572C1.42714 30.9606 0.0020442 29.5255 0 27.7545V15.488C0.000908257 14.63 0.691222 13.9346 1.54319 13.9335H3.77885C4.63098 13.9344 5.32155 14.6298 5.32245 15.488V20.6624H6.16577L6.05819 20.4818C5.71132 19.8996 5.71132 19.1722 6.05819 18.5899L6.31704 18.1549C6.72087 17.4796 7.44558 17.0659 8.22831 17.0636H14.359C15.1419 17.0658 15.8668 17.4796 16.2707 18.1549L16.5296 18.5899C16.8764 19.1722 16.8764 19.8995 16.5296 20.4818L16.422 20.6628H20.8752C20.8813 19.1102 22.1329 17.8548 23.6747 17.8548H30.7291C31.8335 17.8562 32.8341 18.5105 33.2846 19.5259L33.7879 20.6628H38.6771V20.376C38.6783 19.518 39.3688 18.8228 40.2207 18.8219H42.4568C43.3086 18.8231 43.9989 19.5182 44 20.376V20.7911ZM37.4958 30.9623H36.5544V35.3534C36.8659 35.2993 37.1843 35.2993 37.4958 35.3534V30.9623ZM37.0251 36.6107C37.8608 36.6107 38.5382 37.2929 38.5382 38.1345C38.5382 38.976 37.8608 39.6583 37.0251 39.6583C36.1895 39.6583 35.512 38.976 35.512 38.1345C35.5132 37.2933 36.1898 36.6114 37.0251 36.6107ZM7.44476 30.9627H6.50376V35.3534C6.81513 35.2994 7.13339 35.2994 7.44476 35.3534V30.9627ZM6.97446 36.6111C7.81013 36.6111 8.48757 37.2934 8.48757 38.1349C8.48757 38.9765 7.81013 39.6587 6.97446 39.6587C6.1388 39.6587 5.46136 38.9765 5.46136 38.1349C5.46227 37.2937 6.13918 36.612 6.97446 36.6111ZM23.6751 19.1511C23.2102 19.1496 22.7709 19.3651 22.4855 19.7347C22.2794 19.9989 22.1665 20.3247 22.1649 20.6607H26.6675L26.3246 19.1511H23.6751ZM7.16448 19.2548L7.42333 18.8194C7.5935 18.5349 7.89888 18.3605 8.22872 18.3595H14.359C14.6889 18.3605 14.9943 18.5349 15.1644 18.8194L15.4233 19.2544C15.5256 19.4264 15.5256 19.6412 15.4233 19.8131L15.1644 20.2486C15.0466 20.4446 14.8623 20.591 14.6455 20.6607H7.94185C7.72509 20.591 7.54074 20.4446 7.42291 20.2486L7.16407 19.8135C7.06178 19.6417 7.06219 19.4267 7.16448 19.2548ZM5.32369 26.3254C5.32369 26.3634 5.35432 26.3943 5.39211 26.3943L22.2003 26.3951L21.1076 21.9595H14.8096C14.6614 21.9908 14.5104 22.0067 14.359 22.0068H8.22831C8.07692 22.0067 7.92596 21.9908 7.7778 21.9595H5.32369V26.3254ZM23.53 26.3943L22.4361 21.9595H26.9618L27.9687 26.3951L23.53 26.3943ZM30.7279 19.1536H27.6464L27.9894 20.6636H32.3762L32.107 20.0551C31.864 19.5071 31.3239 19.154 30.7279 19.1536ZM33.7429 26.3972H29.2914L28.2841 21.9595H32.9512L32.9866 22.0392C33.487 23.1654 33.745 24.3855 33.7434 25.6193L33.7429 26.3972ZM38.6091 26.3972C38.6469 26.3972 38.6775 26.3663 38.6775 26.3283L38.6771 21.9616H34.3493C34.8019 23.1279 35.0334 24.3692 35.0318 25.6214V26.3972H38.6091Z" fill="#ef6f00"/>
</svg>
