<svg width="44" height="44" viewBox="0 0 44 44" fill="none" xmlns="http://www.w3.org/2000/svg">
<g clip-path="url(#clip0_5285_7432)">
<path d="M0.8575 15.6475C1.20631 15.6475 1.52754 15.4178 1.65584 15.079C1.78784 14.7307 1.69408 14.32 1.42407 14.0728C1.15011 13.8219 0.743292 13.7807 0.427994 13.9705C0.112525 14.1605 -0.0560805 14.5515 0.0152459 14.9247C0.0944785 15.3389 0.453173 15.6475 0.8575 15.6475V15.6475Z" fill="#ef6f00"/>
<path d="M35.3002 15.6053C35.4079 14.0701 35.2404 12.6173 34.801 11.2815C33.6885 7.89968 31.3969 5.40538 28.5139 4.4381C24.507 3.09395 21.0804 5.12155 18.8512 6.76365C18.142 7.28599 17.1889 7.28599 16.4798 6.76365C14.2507 5.12155 10.8238 3.09404 6.81715 4.4381C4.20423 5.31467 2.09524 7.4115 0.878537 10.3422C0.689474 10.7976 0.889107 11.3271 1.32447 11.525C1.75957 11.7228 2.26591 11.5139 2.45506 11.0585C3.4717 8.60956 5.2072 6.8665 7.34206 6.15032C10.5532 5.073 13.4443 6.74405 15.374 8.14871C16.0389 9.40305 17.1143 10.3359 18.4236 10.7885C18.9849 10.9824 19.5616 11.0787 20.136 11.0787C20.9741 11.0787 21.807 10.8736 22.5775 10.4679C23.0014 10.2446 23.1721 9.70405 22.9587 9.26064C22.7453 8.81706 22.2286 8.6386 21.8047 8.86183C20.9162 9.3296 19.907 9.40755 18.9628 9.08119C18.7891 9.02114 18.6214 8.94876 18.4606 8.86479C18.9475 8.75583 19.4178 8.54555 19.8408 8.23394C21.7696 6.8131 24.7127 5.05143 27.989 6.15041C30.3509 6.94274 32.2414 9.02626 33.1758 11.8666C33.5277 12.9365 33.6679 14.1078 33.5937 15.3544C33.3685 15.3399 33.1417 15.3326 32.9132 15.3326C26.8004 15.3326 21.8273 20.5736 21.8273 27.0157C21.8273 30.1882 23.0334 33.0694 24.9877 35.1768C24.8247 35.5379 24.6636 35.8958 24.5052 36.2484C24.1373 37.0671 23.4041 37.286 22.8412 37.2179C22.2777 37.1497 21.6115 36.7613 21.4321 35.8758L19.4096 25.9005C19.4064 25.8849 19.4028 25.8692 19.3988 25.8538C19.1852 25.0222 18.4887 24.4634 17.6655 24.4634C16.8424 24.4634 16.1457 25.0222 15.9322 25.8538C15.9282 25.8692 15.9246 25.8849 15.9215 25.9005L13.8989 35.8758C13.7194 36.7613 13.0533 37.1497 12.4897 37.2179C11.9263 37.286 11.1935 37.0672 10.8257 36.2484C7.62084 29.1152 5.6002 24.8902 4.81963 23.6905C3.7033 21.9747 2.87031 20.2442 2.34403 18.5472C2.19759 18.0749 1.71265 17.8163 1.26139 17.9695C0.809959 18.1227 0.562717 18.6298 0.709154 19.1021C1.28579 20.9613 2.19072 22.8455 3.39874 24.7023C4.10781 25.7922 6.19299 30.1643 9.27015 37.0133C9.83433 38.2691 10.9892 39.0286 12.283 39.0286C12.4164 39.0286 12.5514 39.0205 12.6872 39.004C14.1409 38.8281 15.2765 37.7466 15.5802 36.2489L17.5966 26.3034C17.6044 26.279 17.6176 26.2615 17.6654 26.2615C17.7132 26.2615 17.7263 26.279 17.7342 26.3035L19.7507 36.2488C20.0544 37.7465 21.1899 38.828 22.6436 39.0039C24.0973 39.1798 25.4383 38.3984 26.0608 37.0132C26.1502 36.8141 26.2405 36.6135 26.3315 36.4115C28.1735 37.8483 30.4508 38.6988 32.9133 38.6988C39.026 38.6988 43.9991 33.4578 43.9991 27.0156C43.9991 21.4369 40.2696 16.7589 35.3002 15.6053V15.6053ZM32.9133 36.9007C27.7482 36.9007 23.5462 32.4663 23.5462 27.0156C23.5462 21.565 27.7482 17.1306 32.9133 17.1306C38.0783 17.1306 42.2803 21.565 42.2803 27.0156C42.2803 32.4663 38.0783 36.9007 32.9133 36.9007Z" fill="#ef6f00"/>
<path d="M37.0202 23.9318H35.8437V22.6826C35.8437 21.5811 34.9909 20.685 33.9426 20.685H31.8839C30.8356 20.685 29.9828 21.5811 29.9828 22.6826V23.9318H28.8063C27.758 23.9318 26.9053 24.8279 26.9053 25.9294V28.1021C26.9053 29.2035 27.7581 30.0997 28.8063 30.0997H29.9828V31.3489C29.9828 32.4503 30.8356 33.3465 31.8839 33.3465H33.9426C34.9909 33.3465 35.8437 32.4504 35.8437 31.3489V30.0997H37.0202C38.0684 30.0997 38.9213 29.2036 38.9213 28.1021V25.9294C38.9213 24.8279 38.0684 23.9318 37.0202 23.9318V23.9318ZM37.2025 28.102C37.2025 28.212 37.1207 28.3015 37.0202 28.3015H34.9843C34.5097 28.3015 34.125 28.704 34.125 29.2005V31.3488C34.125 31.4588 34.0431 31.5483 33.9426 31.5483H31.8839C31.7833 31.5483 31.7015 31.4588 31.7015 31.3488V29.2005C31.7015 28.704 31.3168 28.3015 30.8422 28.3015H28.8063C28.7057 28.3015 28.624 28.212 28.624 28.102V25.9293C28.624 25.8192 28.7058 25.7298 28.8063 25.7298H30.8422C31.3168 25.7298 31.7015 25.3273 31.7015 24.8307V22.6826C31.7015 22.5725 31.7833 22.4831 31.8839 22.4831H33.9426C34.0431 22.4831 34.125 22.5725 34.125 22.6826V24.8308C34.125 25.3274 34.5097 25.7299 34.9843 25.7299H37.0202C37.1207 25.7299 37.2025 25.8193 37.2025 25.9294V28.102Z" fill="#ef6f00"/>
</g>
<defs>
<clipPath id="clip0_5285_7432">
<rect width="44" height="44" fill="white"/>
</clipPath>
</defs>
</svg>
