<svg width="44" height="44" viewBox="0 0 44 44" fill="none" xmlns="http://www.w3.org/2000/svg">
<path fill-rule="evenodd" clip-rule="evenodd" d="M21.1088 30.9339H38.5084C39.2631 30.9356 39.8742 31.5257 39.875 32.2534V34.1299C39.874 34.8582 39.2618 35.4483 38.5066 35.449H33.7846C32.4556 36.871 30.8403 38.0173 29.037 38.8179H34.5791C35.5865 38.8191 36.4029 39.6063 36.4042 40.5777V42.2402C36.4029 43.2116 35.5865 43.9988 34.5791 44H11.4444C11.0753 44 10.776 43.7114 10.776 43.3555C10.776 42.9995 11.0753 42.711 11.4444 42.711H34.5787C34.8482 42.7107 35.0666 42.5001 35.0669 42.2402V40.5777C35.0666 40.3178 34.8482 40.1071 34.5787 40.1069H5.95005C5.6805 40.1071 5.46206 40.3178 5.46181 40.5777V42.2398C5.46206 42.4997 5.6805 42.7103 5.95005 42.7105H8.29175C8.6609 42.7105 8.96016 42.9991 8.96016 43.3551C8.96016 43.711 8.6609 43.9996 8.29175 43.9996H5.95005C4.94262 43.9983 4.12626 43.2112 4.125 42.2398V40.5772C4.12626 39.6058 4.94262 38.8186 5.95005 38.8174H8.31972V29.3355C7.26978 28.4076 6.71628 27.0685 6.81644 25.6986C6.91661 24.3288 7.65951 23.0778 8.83409 22.3012C10.8284 15.2823 18.0345 10.8797 25.4681 12.1385C25.6817 12.0043 25.9311 11.9329 26.186 11.9329H27.5806V10.689C27.5817 10.5516 27.5249 10.4197 27.4233 10.3234L25.1628 8.14368C24.7054 8.43124 24.1016 8.37057 23.7155 7.99825L21.3715 5.73805C20.9206 5.30322 20.9206 4.59831 21.3715 4.16348L25.3512 0.326053C25.8021 -0.108684 26.5332 -0.108684 26.9841 0.326053L29.3281 2.5858C29.7143 2.95813 29.777 3.54043 29.4785 3.98135L31.7391 6.16109C32.9886 7.35916 33.689 8.98946 33.6842 10.6886V11.9325H35.0788C35.8102 11.9332 36.4029 12.5047 36.4037 13.21V13.4067C36.4037 13.7627 36.1044 14.0512 35.7353 14.0512C35.3661 14.0512 35.0669 13.7627 35.0669 13.4067V13.2215H26.1975V17.398H35.0701V16.4162C35.0701 16.0602 35.3694 15.7717 35.7385 15.7717C36.1077 15.7717 36.4069 16.0602 36.4069 16.4162V20.4879C36.4062 21.1931 35.8134 21.7647 35.082 21.7654H33.9996V23.9756C33.9986 24.754 33.3445 25.3848 32.5372 25.3858H28.7322C27.9249 25.3848 27.2708 24.754 27.2698 23.9756V21.7632H26.1874C25.4561 21.7622 24.8635 21.1908 24.8625 20.4857V19.7554C21.5133 18.7936 17.955 20.4469 16.6482 23.5721C15.3414 26.6973 16.7152 30.2681 19.8197 31.8154C20.0125 31.288 20.5289 30.9349 21.1088 30.9339ZM32.534 24.0972C32.6033 24.097 32.6594 24.0429 32.6596 23.9761L32.6578 21.7636H28.6034V23.9761C28.6036 24.0429 28.6597 24.097 28.729 24.0972H32.534ZM26.1956 18.687H35.0651V20.4746H26.1975L26.1956 18.687ZM24.5301 6.96253L24.7057 6.79322L28.0794 3.5424L28.2545 3.37354L26.1681 1.36177L22.4456 4.95076L24.5301 6.96253ZM26.1237 7.24897L28.5493 4.9101L30.7933 7.0726C31.7911 8.02954 32.3504 9.33159 32.3465 10.6886V11.9325H28.9165V10.689C28.9175 10.2095 28.7194 9.74961 28.3663 9.41192L26.1237 7.24897ZM24.8584 13.3515C24.22 13.2618 23.5757 13.2168 22.9306 13.2166L22.9329 13.2144C17.3574 13.2083 12.3735 16.5658 10.4615 21.616C12.297 21.218 14.2008 21.9218 15.2898 23.401C16.6807 19.6187 20.816 17.4664 24.8584 18.4209V13.3515ZM8.14184 26.0161C8.14184 24.2371 9.6375 22.7949 11.4825 22.7949C13.3275 22.7949 14.8231 24.2371 14.8231 26.0161C14.8231 27.7952 13.3275 29.2374 11.4825 29.2374C9.63834 29.2354 8.14387 27.7944 8.14184 26.0161ZM9.65698 38.8174H22.9329C26.2547 38.8169 29.4554 37.6147 31.9023 35.4486H21.107C20.3519 35.4476 19.74 34.8576 19.739 34.1295V33.2043C17.6614 32.3411 16.0502 30.683 15.2921 28.6278C14.0223 30.354 11.6774 30.995 9.65698 30.1683V38.8174ZM38.54 34.1317C38.5398 34.1482 38.526 34.1615 38.5089 34.1618H21.1088C21.0916 34.1618 21.0776 34.1483 21.0776 34.1317V32.2534C21.0776 32.2368 21.0916 32.2234 21.1088 32.2234H38.5084C38.5255 32.2236 38.5393 32.2369 38.5396 32.2534L38.54 34.1317ZM11.4825 35.567H16.898C17.2672 35.567 17.5664 35.8556 17.5664 36.2115C17.5664 36.5675 17.2672 36.8561 16.898 36.8561H11.4825C11.1133 36.8561 10.8141 36.5675 10.8141 36.2115C10.8141 35.8556 11.1133 35.567 11.4825 35.567ZM11.4825 34.7232H14.6696C15.0387 34.7232 15.338 34.4346 15.338 34.0787C15.338 33.7227 15.0387 33.4342 14.6696 33.4342H11.4825C11.1133 33.4342 10.8141 33.7227 10.8141 34.0787C10.8141 34.4346 11.1133 34.7232 11.4825 34.7232ZM13.8677 26.0161C13.8677 24.7466 12.8004 23.7175 11.4839 23.7175C10.1673 23.7175 9.09998 24.7466 9.09998 26.0161C9.09998 27.2857 10.1673 28.3148 11.4839 28.3148C12.7995 28.3126 13.8655 27.2847 13.8677 26.0161ZM11.4832 27.0271C10.9045 27.0267 10.4354 26.5743 10.4354 26.0161C10.4354 25.4578 10.9048 25.0052 11.4839 25.0052C12.0629 25.0052 12.5323 25.4578 12.5323 26.0161C12.5316 26.5745 12.0621 27.0267 11.4832 27.0271Z" fill="#6B77B3"/>
</svg>
