<svg width="45" height="42" viewBox="0 0 45 42" fill="none" xmlns="http://www.w3.org/2000/svg">
<path fill-rule="evenodd" clip-rule="evenodd" d="M38.1875 20.9995C38.1875 20.137 38.8875 19.437 39.75 19.437C40.6125 19.437 41.3125 20.137 41.3125 20.9995C41.3125 32.2204 32.2125 41.312 21 41.312C9.77917 41.312 0.6875 32.212 0.6875 20.9953C0.6875 9.77868 9.78333 0.682848 21 0.687013C24.5667 0.687013 28.0667 1.62451 31.1542 3.40785C31.9208 3.80785 32.2167 4.74952 31.8167 5.51618C31.4167 6.27868 30.4708 6.57452 29.7083 6.17452C29.6667 6.15368 29.6292 6.13285 29.5917 6.10785C26.9833 4.59952 24.0167 3.80785 21 3.81202C11.5083 3.81202 3.8125 11.5078 3.8125 20.9995C3.8125 30.4912 11.5083 38.187 21 38.187C30.4917 38.187 38.1875 30.4912 38.1875 20.9995ZM43.9775 4.26535C43.9775 4.26952 43.9817 4.26952 43.9817 4.26952C44.59 4.87785 44.59 5.86535 43.9858 6.47785C43.9817 6.47785 43.9817 6.48202 43.9817 6.48202L22.1067 28.357C21.4983 28.9695 20.5067 28.9695 19.8983 28.357H19.8942L10.5192 18.982C9.90667 18.3695 9.90667 17.3779 10.5192 16.7695C11.1275 16.157 12.1233 16.157 12.7317 16.7695L20.9983 25.0404L41.7692 4.26952C42.3775 3.65702 43.3692 3.65702 43.9775 4.26535Z" fill="#424893"/>
</svg>
