<svg width="44" height="44" viewBox="0 0 44 44" fill="none" xmlns="http://www.w3.org/2000/svg">
<path d="M17.738 22.6188C17.738 22.277 17.461 22 17.1193 22C16.7776 22 16.5005 22.277 16.5005 22.6188V24.75H14.3687C14.027 24.75 13.75 25.027 13.75 25.3688C13.75 25.7105 14.027 25.9875 14.3687 25.9875H16.5005V28.1188C16.5005 28.4605 16.7776 28.7375 17.1193 28.7375C17.461 28.7375 17.738 28.4605 17.738 28.1188V25.9875H19.8687C20.2105 25.9875 20.4875 25.7105 20.4875 25.3688C20.4875 25.027 20.2105 24.75 19.8687 24.75H17.738V22.6188Z" fill="#ef6f00"/>
<path fill-rule="evenodd" clip-rule="evenodd" d="M10.25 8.14648C9.09575 7.82002 8.25 6.75878 8.25 5.5V2.75C8.25 1.23122 9.48122 0 11 0H22C23.5188 0 24.75 1.23122 24.75 2.75V5.5C24.75 6.75878 23.9043 7.82002 22.75 8.14648V9.46019L29.4968 16.5848C29.9804 17.0955 30.25 17.7722 30.25 18.4757V24.6956L30.9442 24.2949C34.2324 22.3964 38.4371 23.523 40.3356 26.8113C42.2341 30.0996 41.1074 34.3042 37.8192 36.2027L25.9113 43.0777C22.623 44.9762 18.4184 43.8496 16.5199 40.5613C16.1395 39.9024 15.8805 39.2067 15.7361 38.5002H5.5C3.98122 38.5002 2.75 37.269 2.75 35.7502V18.4757C2.75 17.7722 3.01956 17.0955 3.50323 16.5848L10.25 9.46019V8.14648ZM15.5989 37.2627C15.5743 35.9841 15.9074 34.7191 16.5579 33.6188H3.9875V35.7502C3.9875 36.5855 4.66467 37.2627 5.5 37.2627H15.5989ZM17.4939 32.3813C17.9367 31.9168 18.4524 31.507 19.0363 31.1699L29.0125 25.4101V19.8688H3.9875V32.3813H17.4939ZM11 1.2375H22C22.8353 1.2375 23.5125 1.91467 23.5125 2.75V5.5C23.5125 6.28054 22.9213 6.92299 22.1622 7.00391H10.8378C10.0787 6.92299 9.4875 6.28054 9.4875 5.5V2.75C9.4875 1.91467 10.1647 1.2375 11 1.2375ZM29.0125 18.4757V18.6313H3.9875V18.4757C3.9875 18.0888 4.13576 17.7166 4.40178 17.4357L11.1485 10.3111C11.3662 10.0812 11.4875 9.77673 11.4875 9.46019V8.25H21.5125V9.46019C21.5125 9.77673 21.6338 10.0812 21.8515 10.3111L21.918 10.3813H13.7497C13.408 10.3813 13.131 10.6583 13.131 11.0001C13.131 11.3418 13.408 11.6188 13.7497 11.6188H23.0898L28.5982 17.4357C28.8642 17.7166 29.0125 18.0888 29.0125 18.4757ZM31.5629 25.3666L26.1448 28.4947L31.7823 38.2592L37.2004 35.131C39.8968 33.5743 40.8206 30.1264 39.2639 27.43C37.7071 24.7337 34.2593 23.8098 31.5629 25.3666ZM30.7106 38.8779L25.0731 29.1135L19.6551 32.2416C16.9587 33.7983 16.0348 37.2462 17.5916 39.9425C19.1483 42.6389 22.5962 43.5628 25.2926 42.006L30.7106 38.8779Z" fill="#ef6f00"/>
</svg>
