<svg width="44" height="44" viewBox="0 0 44 44" fill="none" xmlns="http://www.w3.org/2000/svg">
<path d="M43.3822 21.2103L40.8434 10.0382C40.4352 8.24907 38.8418 7.00008 36.9691 7.00008C34.7813 7.00008 32.9999 8.74105 32.9999 10.8802V11.4815C32.9999 11.9769 33.4099 12.3778 33.9166 12.3778C34.4232 12.3778 34.8333 11.9769 34.8333 11.4815V10.8802C34.8333 9.72921 35.7911 8.79264 36.9691 8.79264C37.9771 8.79264 38.8347 9.4657 39.0531 10.4276L41.5919 21.5989C41.907 22.9871 42.0931 24.4033 42.1487 25.8222H42.0739C41.6063 21.3057 37.7403 17.7555 32.9999 17.7555C28.8553 17.7555 25.3847 20.4767 24.2551 24.175C23.6942 23.5969 22.9549 23.1333 21.9999 23.1333C21.0449 23.1333 20.3057 23.5969 19.7448 24.175C18.6151 20.4767 15.1445 17.7555 11 17.7555C6.25966 17.7555 2.39361 21.3057 1.92594 25.8222H1.85117C1.90669 24.4033 2.09291 22.9871 2.40796 21.5989L4.94672 10.4285C5.16517 9.4657 6.02273 8.79256 7.03069 8.79256C8.20872 8.79256 9.16657 9.72913 9.16657 10.8801V11.4814C9.16657 11.9769 9.57658 12.3778 10.0833 12.3778C10.59 12.3778 11 11.9769 11 11.4814V10.8801C11 8.74096 9.21857 7 7.03069 7C5.15795 7 3.56459 8.24907 3.15639 10.039L0.617716 21.2103C0.20771 23.0187 0 24.8716 0 26.7185C0 27.2139 0.410006 27.6148 0.916692 27.6148H1.92602C2.39361 32.1313 6.25966 35.6814 11 35.6814C15.9761 35.6814 20.0192 31.7783 20.1436 26.9416C20.3277 26.4404 21.0603 24.9259 22 24.9259C22.9156 24.9259 23.6388 26.3561 23.8562 26.9389C23.979 31.7768 28.023 35.6814 33 35.6814C37.7403 35.6814 41.6063 32.1313 42.074 27.6148H43.0833C43.59 27.6148 44 27.2139 44 26.7185C43.9998 24.8716 43.7921 23.0187 43.3822 21.2103ZM11 33.8888C6.9555 33.8888 3.66668 30.6721 3.66668 26.7185C3.66668 22.7648 6.95558 19.5482 11 19.5482C15.0443 19.5482 18.3332 22.7648 18.3332 26.7185C18.3332 30.6721 15.0444 33.8888 11 33.8888ZM32.9999 33.8888C28.9554 33.8888 25.6666 30.6721 25.6666 26.7185C25.6666 22.7648 28.9555 19.5482 32.9999 19.5482C37.0442 19.5482 40.3331 22.7648 40.3331 26.7185C40.3331 30.6721 37.0443 33.8888 32.9999 33.8888Z" fill="#ef6f00"/>
<path d="M11 21.3407C7.96708 21.3407 5.5 23.753 5.5 26.7185C5.5 27.2139 5.91001 27.6148 6.41669 27.6148C6.92338 27.6148 7.33338 27.2139 7.33338 26.7185C7.33338 24.7412 8.97874 23.1333 11.0001 23.1333C11.5068 23.1333 11.9168 22.7324 11.9168 22.2369C11.9167 21.7416 11.5067 21.3407 11 21.3407Z" fill="#ef6f00"/>
<path d="M33 21.3407C29.9671 21.3407 27.5 23.753 27.5 26.7185C27.5 27.2139 27.91 27.6148 28.4167 27.6148C28.9234 27.6148 29.3334 27.2139 29.3334 26.7185C29.3334 24.7412 30.9787 23.1333 33.0001 23.1333C33.5068 23.1333 33.9168 22.7324 33.9168 22.2369C33.9167 21.7416 33.5067 21.3407 33 21.3407Z" fill="#ef6f00"/>
</svg>
