<svg width="169" height="194" viewBox="0 0 169 194" fill="none" xmlns="http://www.w3.org/2000/svg">
<path d="M26.6428 12.0714C26.6428 6.81285 30.9557 2.5 36.2143 2.5H119.679L166.5 49.3212V181.071C166.5 186.33 162.187 190.643 156.929 190.643H36.2143C30.9557 190.643 26.6428 186.33 26.6428 181.071V12.0714Z" fill="white" stroke="#F15642" stroke-width="5"/>
<path d="M162.964 45.7857H132.786C127.527 45.7857 123.214 41.4729 123.214 36.2143V6.03553L162.964 45.7857Z" stroke="#F15642" stroke-width="5"/>
<path d="M144.857 156.929C144.857 160.248 142.141 162.964 138.821 162.964H6.03571C2.71607 162.964 0 160.248 0 156.929V96.5714C0 93.2518 2.71607 90.5357 6.03571 90.5357H138.821C142.141 90.5357 144.857 93.2518 144.857 96.5714V156.929Z" fill="#F15642"/>
<path d="M26.3097 114.359C26.3097 112.765 27.5651 111.027 29.5871 111.027H40.735C47.0122 111.027 52.6616 115.228 52.6616 123.279C52.6616 130.909 47.0122 135.158 40.735 135.158H32.6774V141.531C32.6774 143.656 31.3254 144.857 29.5871 144.857C27.9937 144.857 26.3097 143.656 26.3097 141.531V114.359V114.359ZM32.6774 117.105V129.128H40.735C43.9702 129.128 46.5293 126.273 46.5293 123.279C46.5293 119.906 43.9702 117.105 40.735 117.105H32.6774Z" fill="white"/>
<path d="M62.1136 144.857C60.5201 144.857 58.7819 143.988 58.7819 141.869V114.455C58.7819 112.723 60.5201 111.462 62.1136 111.462H73.165C95.2195 111.462 94.7366 144.857 73.5995 144.857H62.1136V144.857ZM65.1556 117.352V138.972H73.165C86.1961 138.972 86.7755 117.352 73.165 117.352H65.1556V117.352Z" fill="white"/>
<path d="M102.559 117.739V125.41H114.866C116.604 125.41 118.342 127.148 118.342 128.832C118.342 130.426 116.604 131.729 114.866 131.729H102.559V141.863C102.559 143.553 101.358 144.851 99.6677 144.851C97.5432 144.851 96.2455 143.553 96.2455 141.863V114.449C96.2455 112.717 97.5492 111.456 99.6677 111.456H116.61C118.735 111.456 119.99 112.717 119.99 114.449C119.99 115.994 118.735 117.733 116.61 117.733H102.559V117.739Z" fill="white"/>
<path d="M138.821 162.964H24.1428V169H138.821C142.141 169 144.857 166.284 144.857 162.964V156.929C144.857 160.248 142.141 162.964 138.821 162.964Z" fill="#CAD1D8"/>
</svg>
